{"title":"The Magicians US S01 1080p BluRay HEVC DD5.1 x265 [1080P][HEVC]","uid":15397591,"size":9909970641,"categoryP":"video","categoryS":"hd___tv_shows","magnet":"?xt=urn:btih:60b6724e10eccaea61a98e7da28ec7b8b9eddefd&amp;dn=The+Magicians+US+S01+1080p+BluRay+HEVC+DD5.1+x265+%5B1080P%5D%5BHEVC%5D&amp;tr=udp%3A%2F%2Ftracker.leechers-paradise.org%3A6969&amp;tr=udp%3A%2F%2Fzer0day.ch%3A1337&amp;tr=udp%3A%2F%2Fopen.demonii.com%3A1337&amp;tr=udp%3A%2F%2Ftracker.coppersurfer.tk%3A6969&amp;tr=udp%3A%2F%2Fexodus.desync.com%3A6969","seeders":1,"leechers":4,"uploader":"nayhtut","files":26,"time":1469410424,"description":"[Screenshots]\r\n \nhttps://s32.postimg.org/u67yl6ap1/The_Magicians_US_S01_E13_1080p_Blu_Ray_HEVC_DD5_1.jpg \nhttps://s32.postimg.org/vzav9hvvp/The_Magicians_US_S01_E11_1080p_Blu_Ray_HEVC_DD5_1.jpg \nhttps://s32.postimg.org/vntewqffp/The_Magicians_US_S01_E11_1080p_Blu_Ray_HEVC_DD5_1.jpg \nhttps://s32.postimg.org/7lcl1uysl/The_Magicians_US_S01_E06_1080p_Blu_Ray_HEVC_DD5_1.jpg \nhttps://s32.postimg.org/7mmiva0md/The_Magicians_US_S01_E05_1080p_Blu_Ray_HEVC_DD5_1.jpg \nhttps://s32.postimg.org/9fpfjllt1/The_Magicians_US_S01_E03_1080p_Blu_Ray_HEVC_DD5_1.jpg \nhttps://s32.postimg.org/5xdfn7kx1/The_Magicians_US_S01_E02_1080p_Blu_Ray_HEVC_DD5_1.jpg \nhttps://s32.postimg.org/jfkbzhx2d/The_Magicians_US_S01_E02_1080p_Blu_Ray_HEVC_DD5_1.jpg \nhttps://s32.postimg.org/gziilnezp/The_Magicians_US_S01_E01_1080p_Blu_Ray_HEVC_DD5_1.jpg\r\n\r\n\r\n\r\nSource:  The Magicians US S01 1080p BluRay x264-ROVERS (Size: 43.33 GB)\r\n\r\nContains:   The Magicians US Season One - Episode 01 to 13\r\n\r\nFormat                                   : Matroska\r\nFormat version                           : Version 4 / Version 2\r\nFile size                                : 9.22 GiB\r\nDuration                                 : Various\r\nOverall bit rate                         : 2 342 Kbps\r\nWriting application                      : Lavf57.25.100\r\nWriting library                          : Lavf57.25.100\r\n\r\nVideo\r\n\r\nID                                       : 1\r\nFormat                                   : V_MPEGH/ISO/HEVC\r\nCodec ID                                 : V_MPEGH/ISO/HEVC\r\nDuration                                 : 52mn 9s\r\nBit rate                                 : 1 911 Kbps\r\nWidth                                    : 1 920 pixels\r\nHeight                                   : 1 080 pixels\r\nDisplay aspect ratio                     : 16:9\r\nFrame rate                               : 25.000 fps\r\nBits/(Pixel*Frame)                       : 0.037\r\nStream size                              : 713 MiB (82%)\r\nWriting library                          : Lavc57.48.101 libx265\r\nLanguage                                 : English\r\nDefault                                  : Yes\r\nForced                                   : No\r\nDURATION                                 : 00:52:09.171000000\r\nNUMBER_OF_FRAMES                         : 75024\r\nNUMBER_OF_BYTES                          : 3671935587\r\n_STATISTICS_WRITING_APP                  : mkvmerge v8.3.0 ('Over the Horizon') 64bit\r\n_STATISTICS_WRITING_DATE_UTC             : 2016-07-10 16:53:02\r\n_STATISTICS_TAGS                         : BPS DURATION NUMBER_OF_FRAMES NUMBER_OF_BYTES\r\n\r\nAudio\r\n\r\nID                                       : 2\r\nFormat                                   : AC-3\r\nFormat/Info                              : Audio Coding 3\r\nMode extension                           : CM (complete main)\r\nFormat settings, Endianness              : Big\r\nCodec ID                                 : A_AC3\r\nDuration                                 : 52mn 9s\r\nBit rate mode                            : Constant\r\nBit rate                                 : 384 Kbps\r\nChannel(s)                               : 6 channels\r\nChannel positions                        : Front: L C R, Side: L R, LFE\r\nSampling rate                            : 48.0 KHz\r\nBit depth                                : 16 bits\r\nCompression mode                         : Lossy\r\nStream size                              : 143 MiB (16%)\r\nWriting library                          : Lavc57.24.102 ac3\r\nLanguage                                 : English\r\nDefault                                  : Yes\r\nForced                                   : No\r\nDURATION                                 : 00:52:09.247000000\r\nNUMBER_OF_FRAMES                         : 293360\r\nNUMBER_OF_BYTES                          : 590240320\r\n_STATISTICS_WRITING_APP                  : mkvmerge v8.3.0 ('Over the Horizon') 64bit\r\n_STATISTICS_WRITING_DATE_UTC             : 2016-07-10 16:53:02\r\n_STATISTICS_TAGS                         : BPS DURATION NUMBER_OF_FRAMES NUMBER_OF_BYTES\r\n\r\nMenu\r\n\r\n00:00:00.000                             : :00:00:00.000\r\n00:10:38.054                             : :00:10:38.054\r\n00:21:39.381                             : :00:21:39.381\r\n00:37:55.565                             : :00:37:55.565\r\n\r\n\r\n__--__--__--__--__--__--__--__--__--__--__--__--__--\r\n\r\n\r\nIMDb: http://www.imdb.com/title/tt4254242\r\n\r\nAfter adding torrent with maget link,\r\n\r\nplease add this  following trackers list to the torrent for better seeds.\r\n\r\n\r\nudp://tracker.coppersurfer.tk:6969/announce\r\n\r\nudp://tracker.opentrackr.org:1337/announce\r\n \nhttp://tracker.baravik.org:6970/announce\r\n \nhttp://tracker2.wasabii.com.tw:6969/announce\r\n\r\nudp://9.rarbg.me:2710/announce\r\n\r\n\r\n__--__--__--__--__--__--__--__--__--__--__--__--__--\r\n\r\n\r\nEnjoy!","torrent":{"xt":"urn:btih:60b6724e10eccaea61a98e7da28ec7b8b9eddefd","amp;dn":"The+Magicians+US+S01+1080p+BluRay+HEVC+DD5.1+x265+%5B1080P%5D%5BHEVC%5D","amp;tr":["udp%3A%2F%2Ftracker.leechers-paradise.org%3A6969","udp%3A%2F%2Fzer0day.ch%3A1337","udp%3A%2F%2Fopen.demonii.com%3A1337","udp%3A%2F%2Ftracker.coppersurfer.tk%3A6969","udp%3A%2F%2Fexodus.desync.com%3A6969"],"infoHash":"60b6724e10eccaea61a98e7da28ec7b8b9eddefd","infoHashBuffer":{"type":"Buffer","data":[96,182,114,78,16,236,202,234,97,169,142,125,162,142,199,184,185,237,222,253]},"announce":[],"urlList":[]}}